<svg height="511pt" viewBox="0 -39 511.99876 511" width="511pt" xmlns="http://www.w3.org/2000/svg"><path d="m212.648438 182.765625-48.605469-56.355469c-6.78125-7.859375-16.5-12.570312-26.867188-13.019531l-42.09375-1.835937-46.121093-29.710938-16.945313-68.972656c-2.140625-8.710938-10.9375-14.039063-19.648437-11.898438-8.707032 2.140625-14.035157 10.933594-11.894532 19.644532l18.488282 75.253906c.992187 4.03125 3.488281 7.53125 6.976562 9.777344l47.664062 30.703124-5.648437 122.03125-27.089844 66.15625c-.441406 1.074219-.78125 2.191407-1.015625 3.332032l-17.089844 82.5625c-2.121093 10.230468 4.457032 20.242187 14.6875 22.359375 10.203126 2.113281 20.238282-4.433594 22.359376-14.6875l16.734374-80.851563 25.300782-61.792968 28.519531 1.484374 17.507813 53.746094 4.269531 84.535156c.527343 10.386719 9.363281 18.460938 19.847656 17.9375 10.433594-.527343 18.46875-9.414062 17.9375-19.847656l-4.394531-87.050781c-.085938-1.664063-.390625-3.316406-.90625-4.902344l-24.410156-74.925781 3.28125-70.8125 25.910156 29.914062c.863281 1 1.847656 1.886719 2.929687 2.648438l36.332031 25.566406c1.011719-4.886718 3.332032-9.5625 6.984376-13.476562l12.003906-12.878906zm0 0"/><path d="m159.285156 66.703125c0 19.796875-16.046875 35.84375-35.84375 35.84375s-35.84375-16.046875-35.84375-35.84375 16.046875-35.84375 35.84375-35.84375 35.84375 16.046875 35.84375 35.84375zm0 0"/><path d="m367.445312 370.15625-19.339843 43.71875 4.3125 8.996094c4.332031 9.035156 15.175781 12.871094 24.234375 8.527344 9.050781-4.335938 12.867187-15.183594 8.53125-24.234376zm0 0"/><path d="m367.011719 113.960938c18.988281.984374 35.179687-13.605469 36.167969-32.589844.105468-2.0625.019531-4.089844-.226563-6.070313 6.007813-3.464843 10.0625-9.9375 10.0625-17.371093 0-11.078126-8.980469-20.058594-20.058594-20.058594-6.644531 0-12.519531 3.25-16.171875 8.230468-2-.476562-4.070312-.789062-6.195312-.898437-18.988282-.988281-35.179688 13.605469-36.167969 32.589844-.988281 18.988281 13.605469 35.179687 32.589844 36.167969zm0 0"/><path d="m506.691406 42.195312c-6.472656-5.683593-16.328125-5.042968-22.011718 1.429688l-49.242188 56.09375-50.863281 26.527344c-2.195313-.402344.660156-.167969-40.941407-2.332032-7.335937-.382812-14.984374 3.515626-18.347656 8.058594l-40.152344 54.226563-40.382812 43.3125c-5.929688 6.359375-5.582031 16.316406.777344 22.246093 6.371094 5.941407 16.328125 5.566407 22.246094-.777343 43.199218-46.386719 41.140624-44 42.128906-45.332031l8.953125-12.09375c-2.585938 56.367187-1.871094 42.285156-2.507813 47.363281l-9.878906 78.9375c-.433594 3.457031.136719 6.964843 1.644531 10.109375l4.605469 9.609375 40.777344-69.46875 3.792968.71875-60.539062 136.84375c-4.058594 9.175781.089844 19.90625 9.265625 23.964843 9.132813 4.039063 19.886719-.046874 23.960937-9.261718 16.773438-37.9375 65.582032-148.175782 66.089844-149.53125l.308594.019531c2.816406-61.386719 5.257812-114.503906 5.527344-120.46875l50.542968-26.359375c1.710938-.890625 3.238282-2.09375 4.511719-3.539062l51.164063-58.285157c5.683594-6.476562 5.042968-16.332031-1.429688-22.011719zm0 0"/></svg>