<svg aria-hidden="true" style="position: absolute; width: 0; height: 0; overflow: hidden;" version="1.1" xmlns="http://www.w3.org/2000/svg" xmlns:xlink="http://www.w3.org/1999/xlink">
<defs>
<symbol id="icon-basketball" viewBox="0 0 32 32">
<path d="M15.99 28.98v-11.99h-4.010c-0.135 3.421-1.644 6.488-3.99 8.665 2.117 1.964 4.915 3.204 8 3.325v0zM6.601 24.136c-1.541-1.991-2.495-4.459-2.601-7.146h6.979c-0.134 3.143-1.531 5.96-3.695 7.956 0.014 0.015-0.455-0.515-0.684-0.81v0zM25.696 24.946c1.94-2.111 3.164-4.892 3.284-7.956v0h-6.979c0.134 3.143 1.531 5.96 3.695 7.956v0 0zM24.99 25.655c-2.117 1.964-4.915 3.204-8 3.325v0-11.99h4.010c0.135 3.421 1.644 6.488 3.99 8.665v0 0zM25.696 8.034c1.94 2.111 3.164 4.892 3.284 7.956v0h-6.979c0.134-3.143 1.531-5.96 3.695-7.956v0 0zM24.99 7.325c-2.117-1.964-4.915-3.204-8-3.325v11.99h4.010c0.135-3.421 1.644-6.488 3.99-8.665v0zM7.284 8.034c-1.94 2.111-3.164 4.892-3.284 7.956v0h6.979c-0.134-3.143-1.531-5.96-3.695-7.956v0zM7.99 7.325c2.117-1.964 4.915-3.204 8-3.325v0 11.99h-4.010c-0.135-3.421-1.644-6.488-3.99-8.665v0z"></path>
</symbol>
<symbol id="icon-volleyball" viewBox="0 0 32 32">
<path d="M28.801 14.269c-3.593-3.423-8.638-5.233-13.883-4.554 0.304 1.809 0.916 3.596 1.857 5.287 4.564 0.070 8.703 1.888 11.78 4.813-0.017 0.062 0.088-0.327 0.146-0.589 0.195-0.877 0.298-1.79 0.298-2.726 0-0.48-0.027-0.954-0.080-1.42-0.058-0.511-0.161-1.044-0.119-0.811v0zM28.349 12.508c-3.7-2.966-8.548-4.465-13.569-3.812-0.16-1.543-0.1-3.092 0.169-4.601-0.051 0.006 0.18-0.022 0.348-0.038 0.396-0.038 0.798-0.057 1.204-0.057 5.241 0 9.728 3.225 11.586 7.799 0.144 0.355 0.305 0.835 0.263 0.709v0zM28.212 20.878c-1.427-1.438-3.117-2.614-4.991-3.451-2.221 5.307-6.733 9.030-11.952 10.43-0.059-0.027 0.169 0.078 0.345 0.153 1.501 0.638 3.153 0.991 4.887 0.991 5.2 0 9.658-3.175 11.542-7.692 0.090-0.217 0.199-0.506 0.17-0.43v0zM9.902 27.119c5.379-1.065 10.117-4.713 12.367-10.082-1.718-0.641-3.572-1.004-5.506-1.034-2.399 4.011-6.162 6.721-10.352 7.879-0.048-0.066 0.169 0.23 0.335 0.436 0.713 0.888 1.544 1.677 2.47 2.342 0.263 0.189 0.727 0.485 0.686 0.459v0zM5.823 23.003c2.017-0.514 3.936-1.407 5.641-2.649-2.911-3.813-4.071-8.456-3.57-12.92 0.035-0.033-0.43 0.42-0.68 0.697-1.998 2.216-3.215 5.15-3.215 8.369 0 2.158 0.547 4.188 1.51 5.96 0.139 0.255 0.355 0.612 0.313 0.543v0zM9.078 6.441c-0.813 4.537 0.217 9.372 3.199 13.282 1.405-1.164 2.638-2.581 3.627-4.233-1.974-3.545-2.585-7.49-1.998-11.221 0.032-0.007-0.176 0.038-0.311 0.070-1.416 0.337-2.739 0.915-3.922 1.688-0.284 0.185-0.672 0.471-0.595 0.413v0z"></path>
</symbol>
<symbol id="icon-volleyball-water" viewBox="0 0 32 32">
<path d="M19.856 22.672c1.386-1.502 2.536-3.263 3.365-5.245 1.875 0.837 3.564 2.014 4.991 3.451 0.029-0.076-0.079 0.213-0.17 0.43-2.515 1.579-5.268 2.18-8.187 1.364v0 0zM18.781 22.309c1.448-1.485 2.643-3.258 3.487-5.273-1.718-0.641-3.572-1.004-5.506-1.034-0.95 1.588-2.114 2.973-3.433 4.137 1.294 0.229 2.596 0.694 3.895 1.425 0.523 0.294 1.043 0.542 1.557 0.745v0 0zM11.178 19.97c-2.7-3.738-3.769-8.221-3.284-12.536 0.035-0.033-0.43 0.42-0.68 0.697-1.998 2.216-3.215 5.15-3.215 8.369 0 1.842 0.398 3.59 1.113 5.165 1.955-1.049 3.992-1.658 6.065-1.695v0 0zM28.801 14.269c-3.593-3.423-8.638-5.233-13.883-4.554 0.304 1.809 0.916 3.596 1.857 5.287 4.564 0.070 8.703 1.888 11.78 4.813-0.017 0.062 0.088-0.327 0.146-0.589 0.195-0.877 0.298-1.79 0.298-2.726 0-0.48-0.027-0.954-0.080-1.42-0.058-0.511-0.161-1.044-0.119-0.811v0zM28.349 12.508c-3.7-2.966-8.548-4.465-13.569-3.812-0.16-1.543-0.1-3.092 0.169-4.601-0.051 0.006 0.18-0.022 0.348-0.038 0.396-0.038 0.798-0.057 1.204-0.057 5.241 0 9.728 3.225 11.586 7.799 0.144 0.355 0.305 0.835 0.263 0.709v0zM9.078 6.441c-0.813 4.537 0.217 9.372 3.199 13.282 1.405-1.164 2.638-2.581 3.627-4.233-1.974-3.545-2.585-7.49-1.998-11.221 0.032-0.007-0.176 0.038-0.311 0.070-1.416 0.337-2.739 0.915-3.922 1.688-0.284 0.185-0.672 0.471-0.595 0.413v0zM3 25c0.432-0.319 0.901-0.634 1.405-0.934 4.032-2.406 8.441-2.965 12.82-0.502 4.021 2.262 7.786 1.761 11.12-0.452 0.623-0.414 1.177-0.857 1.655-1.299v1.322c-0.341 0.277-0.709 0.549-1.102 0.81-3.622 2.405-7.778 2.957-12.164 0.491-4.022-2.262-8.065-1.75-11.817 0.489-0.713 0.425-1.353 0.881-1.911 1.336-0.002 0.002-0.004 0.003-0.006 0.005v-1.266zM5.979 26.232c3.592-1.665 7.43-1.813 11.245 0.333 3.481 1.958 6.771 1.846 9.755 0.344v1.109c-3.143 1.433-6.616 1.46-10.245-0.581-3.645-2.050-7.307-1.822-10.755-0.094v-1.11z"></path>
</symbol>
<symbol id="icon-table-tennis" viewBox="0 0 32 32">
<path d="M7.406 16c-0.314-0.92-0.456-1.924-0.39-2.977l0.064-1.029c0.242-3.872 3.569-6.995 7.432-6.995h1.010c3.869 0 7.191 3.132 7.432 6.995l0.064 1.029c0.066 1.052-0.076 2.057-0.39 2.977h-15.223zM7.831 17c1.233 2.391 3.722 4 6.688 4h0.996c2.967 0 5.456-1.609 6.689-4h-14.372zM17.227 21.802l0.291 4.2c0.031 0.551-0.443 0.998-1 0.998h-3c-0.566 0-1.029-0.447-0.998-0.998l0.233-4.189c0.548 0.122 1.122 0.186 1.714 0.186h0.996c0.611 0 1.202-0.068 1.765-0.198v0 0zM26.017 21.5c0-1.105-0.895-2-2-2s-2 0.895-2 2c0 1.105 0.895 2 2 2s2-0.895 2-2v0z"></path>
</symbol>
<symbol id="icon-man-woman" viewBox="0 0 32 32">
<path d="M8 3c0 1.657-1.343 3-3 3s-3-1.343-3-3c0-1.657 1.343-3 3-3s3 1.343 3 3z"></path>
<path d="M26 3c0 1.657-1.343 3-3 3s-3-1.343-3-3c0-1.657 1.343-3 3-3s3 1.343 3 3z"></path>
<path d="M8 8h-6c-1.105 0-2 0.895-2 2v10h2v12h2.5v-12h1v12h2.5v-12h2v-10c0-1.105-0.895-2-2-2z"></path>
<path d="M30.469 16l1.531-1.109-4.165-6.441c-0.185-0.281-0.499-0.45-0.835-0.45h-8c-0.336 0-0.65 0.169-0.835 0.45l-4.165 6.441 1.531 1.109 3.458-4.487 1.202 2.804-4.191 7.683h3.833l0.667 10h2v-10h1v10h2l0.667-10h3.833l-4.191-7.683 1.202-2.804 3.458 4.487z"></path>
</symbol>
</defs>
</svg>
